<svg width="100%" height="100%" viewBox="0 0 101 91" fill="none" xmlns="http://www.w3.org/2000/svg">
<path fill-rule="evenodd" clip-rule="evenodd" d="M100.855 45.8804C100.855 46.1789 100.855 46.6291 100.855 47.224C100.855 47.4557 100.881 47.6735 100.93 47.881C100.977 48.1099 101 48.3388 101 48.5704C101 49.9036 100.892 51.188 100.674 52.4295C100.48 53.6952 100.225 54.912 99.9101 56.084C99.161 58.6126 98.1787 60.9793 96.9668 63.1846C94.8611 66.7445 92.0994 69.9736 88.6852 72.8711C85.271 75.7417 81.3344 78.1786 76.8783 80.1771C72.4222 82.1991 67.5774 83.6833 62.3467 84.623L62.6729 84.7953C63.5928 85.1186 64.5265 85.3578 65.4717 85.5198C67.8215 85.9804 69.9758 85.9693 71.9368 85.4847C73.924 85.0028 75.6664 84.028 77.1675 82.5548L78.8764 83.5889C78.7064 83.8881 78.5502 84.1866 78.4056 84.4858C78.2835 84.7843 78.0757 85.0835 77.7865 85.3827C77.7865 85.4523 77.7495 85.544 77.679 85.657C77.6303 85.7729 77.5569 85.8749 77.4603 85.9693C74.4799 89.3466 70.799 91.024 66.417 90.9997C64.2111 90.9997 61.9238 90.6337 59.5479 89.8981C57.1531 89.1632 54.706 88.0485 52.2118 86.5539C51.7517 86.2547 51.292 85.9562 50.829 85.657H50.0321C49.572 85.9562 49.1122 86.2547 48.6492 86.5539C46.1324 88.0244 43.6852 89.1392 41.3131 89.8981C38.9401 90.6337 36.6496 90.9997 34.4475 90.9997C32.3381 90.9997 30.3772 90.6227 28.5608 89.8636C26.7188 89.0826 25.0979 87.8865 23.6936 86.2789C23.5488 86.1175 23.4151 85.9693 23.2931 85.8294C23.1966 85.6708 23.0742 85.5198 22.9298 85.3827L22.7481 85.0724L22.6037 84.9353C22.459 84.7036 22.3253 84.4858 22.2032 84.2783C22.1067 84.0494 21.9844 83.8205 21.8399 83.5889L23.6936 82.5548L24.0197 82.8671C24.6497 83.5324 25.3653 84.0846 26.1622 84.5209C26.9855 84.9566 27.8226 85.291 28.6683 85.5198C28.9836 85.5895 29.299 85.6357 29.6134 85.657C29.9288 85.7025 30.2435 85.7618 30.5589 85.8294C31.7452 85.9693 33.0054 85.9342 34.3362 85.7274C35.6929 85.5198 37.0865 85.1538 38.514 84.623C36.479 84.2107 34.4475 83.7288 32.4125 83.1766C30.8626 82.7161 29.3725 82.2239 27.9417 81.6931C26.5147 81.165 25.0979 80.5673 23.6936 79.9021C18.9452 77.7643 14.793 75.0985 11.2304 71.9046C7.6972 68.7107 4.94695 65.1369 2.98605 61.184C1.02487 57.2338 0.0309124 53.0272 0.00533683 48.5704C-0.0170418 48.1099 0.0309127 47.8114 0.150072 47.6735V47.364C0.150072 46.8118 0.150072 46.3168 0.150072 45.8804H2.51145C2.63352 48.1312 3.15607 50.3049 4.07592 52.3944C4.87284 54.4867 5.90312 56.5093 7.16389 58.4616C9.31805 61.588 12.0567 64.402 15.3748 66.9066C18.6668 69.4111 22.4221 71.5247 26.6368 73.2482C30.848 74.9503 35.3781 76.178 40.2232 76.9377C40.1488 76.8674 40.064 76.7757 39.9672 76.6627C39.8707 76.5469 39.7486 76.4448 39.6039 76.3504C37.2797 73.87 35.0404 71.1587 32.883 68.2178C30.7033 65.2286 28.6828 62.1726 26.8184 59.0483C25.9698 57.4868 25.1467 55.9116 24.3457 54.3253C23.5712 52.7177 22.8333 51.1425 22.1291 49.6045C20.3388 45.4682 18.922 41.4098 17.8809 37.4355C16.8614 33.4819 16.2461 29.7041 16.0273 26.0959C15.8084 22.487 16.0157 19.191 16.6463 16.2019C17.2988 13.2155 18.4003 10.6413 19.9494 8.48148C20.2423 8.2981 20.4463 8.0451 20.5684 7.72454C20.7384 7.58459 20.8576 7.47153 20.9317 7.37985C21.0282 7.26403 21.1133 7.13788 21.1874 7L22.9298 8.03407L23.0742 8.17195C22.1291 9.80371 21.5022 11.5837 21.1874 13.5147C20.9689 14.5487 20.8096 15.6393 20.7128 16.7892C20.6164 17.9391 20.5684 19.1104 20.5684 20.3057C20.594 24.4882 21.247 29.0257 22.5293 33.921C23.838 38.7929 25.7396 43.7661 28.2347 48.8454C30.7033 53.9241 33.7064 58.8518 37.2425 63.632C37.8726 64.5041 38.5033 65.2989 39.1334 66.0097C39.7632 66.8604 40.3793 67.6414 40.9867 68.3549C42.5358 70.146 44.1081 71.837 45.7095 73.4205C47.2818 75.0068 48.8794 76.431 50.5026 77.6967C50.6735 77.4651 50.8915 77.2362 51.1588 77.0074C51.4224 76.7999 51.6776 76.582 51.9188 76.3504C52.2118 76.076 52.5263 75.801 52.864 75.5238C53.1793 75.2488 53.5311 74.9392 53.9169 74.5945C55.5663 73.0303 57.2011 71.3524 58.8213 69.5614C60.4453 67.7469 62.0314 65.7698 63.5812 63.632C65.6163 60.8531 67.4923 57.9901 69.2122 55.0499C70.0608 53.5794 70.8724 52.1304 71.6477 50.7061C72.3968 49.2598 73.0892 47.8003 73.7162 46.3299C76.018 41.2726 77.7269 36.3552 78.8393 31.5758C79.9546 26.8197 80.4262 22.4304 80.2554 18.41C80.1108 14.3867 79.2876 10.975 77.7865 8.17195L79.4954 7C79.64 7.13788 79.7592 7.26403 79.8587 7.37985C79.9546 7.47153 80.0404 7.58459 80.1108 7.72454C80.4037 8.0451 80.6078 8.2981 80.7299 8.48148V8.61867C81.3598 9.44799 81.9273 10.3311 82.4352 11.2742C82.9692 12.2379 83.3921 13.2858 83.7067 14.4109C84.022 15.5125 84.2662 16.6734 84.4333 17.8929C84.604 19.1317 84.7261 20.3837 84.7966 21.6494C84.9448 25.0053 84.689 28.5894 84.0366 32.4023C83.3579 36.218 82.3022 40.1579 80.8745 44.2266C79.4468 48.2719 77.6419 52.3268 75.4622 56.3935C73.305 60.4622 70.8099 64.402 67.9777 68.2178C67.4698 68.8375 67.044 69.3787 66.7062 69.8364C66.2463 70.4582 65.7863 71.0077 65.3271 71.4923C63.7744 73.515 62.1651 75.3301 60.4932 76.9377C62.6729 76.6172 64.6965 76.2235 66.5616 75.7658C69.5384 75.0523 72.2892 74.1099 74.8061 72.9386C79.3138 71.1021 83.2729 68.8127 86.6871 66.08C90.1013 63.3225 92.8376 60.2306 94.8982 56.8078C96.9813 53.383 98.2383 49.7416 98.6757 45.8804H100.855Z" fill="white"/>
<path fill-rule="evenodd" clip-rule="evenodd" d="M79.1592 7.37823L77.3094 8.44467C75.8076 6.97426 74.0732 5.9995 72.1122 5.51488C70.1512 5.03302 68.0456 5.022 65.7918 5.48248C65.3064 5.61967 64.8095 5.74651 64.3016 5.85957C63.7937 5.97538 63.2967 6.13669 62.8114 6.34418L62.4852 6.51653C67.6678 7.45612 72.4755 8.94032 76.909 10.9622C81.3389 12.9607 85.2646 15.3976 88.6787 18.2681C92.0929 21.1654 94.8546 24.3944 96.9602 27.9543C98.1721 30.3208 99.1544 32.6881 99.9035 35.0554C100.219 36.2507 100.474 37.4923 100.667 38.7765C100.886 40.0422 100.993 41.3162 100.993 42.6032C101.019 43.0175 100.971 43.5 100.849 44.0515C100.849 44.5093 100.849 44.9594 100.849 45.3958H98.6691C98.2317 41.534 96.9864 37.8935 94.9287 34.468C92.8449 31.0454 90.1065 27.9432 86.7177 25.1617C83.3261 22.4042 79.415 20.0859 74.9815 18.2005C73.6504 17.6731 72.3055 17.1885 70.9519 16.7522C69.5947 16.3158 68.1786 15.9008 66.7 15.5106C64.8095 14.9371 62.8376 14.5007 60.7799 14.2022C62.329 15.9497 63.9383 17.7752 65.6102 19.6819C65.8514 19.9804 66.0584 20.2686 66.2292 20.5436C66.4217 20.8208 66.6404 21.071 66.8816 21.3026C67.367 21.8762 67.7782 22.4635 68.1161 23.0612C70.9744 26.8989 73.4804 30.8379 75.6375 34.883C77.7918 38.9489 79.585 43.0072 81.0127 47.0489C82.4659 51.1175 83.5187 55.0468 84.1747 58.8383C84.8272 62.6298 85.083 66.1786 84.9384 69.4883C84.9384 70.8208 84.8388 72.0837 84.6456 73.2797C84.4269 74.4965 84.1631 75.6574 83.8485 76.7617C83.5332 77.8654 83.1445 78.8753 82.6845 79.7935C82.2246 80.7359 81.6797 81.6438 81.0498 82.5186C80.9052 82.6557 80.7831 82.7826 80.6865 82.8956C80.5898 82.9901 80.5048 83.1031 80.4307 83.2403C80.1415 83.5636 79.9345 83.8166 79.8153 84L77.9248 82.966C79.4746 80.2085 80.3232 76.8182 80.4678 72.7979C80.6385 68.7989 80.167 64.4097 79.0517 59.6297C77.9618 54.8745 76.29 49.9787 74.0398 44.9484C72.6346 42.0055 71.0711 39.0537 69.3505 36.0894C68.5048 34.6645 67.6082 33.2403 66.6629 31.8154C65.7438 30.3912 64.776 28.9987 63.7567 27.6447V27.5069C60.6092 23.3466 57.3883 19.7061 54.0926 16.5798C53.778 16.2806 53.4401 15.9821 53.0768 15.683C52.7135 15.3838 52.3758 15.088 52.0611 14.7889C51.6237 14.3497 51.1043 13.903 50.4966 13.4425C48.9955 14.7758 47.4575 16.2241 45.8852 17.7862C44.2839 19.3724 42.7116 21.0848 41.1625 22.9212C40.8472 23.2204 40.5319 23.5782 40.2174 23.9904C39.9021 24.3806 39.5873 24.7605 39.272 25.1293C38.6419 25.8648 38.0261 26.6562 37.4184 27.5069C33.8823 32.3324 30.8792 37.2848 28.4106 42.3633C25.938 47.4391 24.062 52.4266 22.7797 57.3217C21.471 62.1934 20.7924 66.7412 20.7444 70.9718C20.6965 73.339 20.9005 75.5553 21.3635 77.6234C21.8227 79.5757 22.4388 81.3122 23.2133 82.8281V82.966L21.5082 84C21.3635 83.838 21.2042 83.6657 21.0336 83.483C20.8889 83.2755 20.7328 83.1031 20.5628 82.966L20.4184 82.6557L20.2736 82.5186C18.6723 80.4264 17.549 77.8978 16.8928 74.9356C16.215 71.9707 15.9845 68.6858 16.2034 65.077C16.3967 61.4931 17.0151 57.7016 18.057 53.7026C19.0725 49.7284 20.4777 45.6839 22.2717 41.5691C23.6987 38.4457 25.2599 35.3297 26.9575 32.2276C27.9026 30.62 28.8812 29.0579 29.9007 27.542C30.8909 26.0234 31.9467 24.5316 33.0589 23.0612C34.1488 21.588 35.2642 20.1638 36.4029 18.7851C37.5631 17.4064 38.7271 16.1221 39.891 14.926C39.9614 14.7889 40.0465 14.673 40.143 14.5814C40.2398 14.4655 40.3618 14.3394 40.5063 14.2022C35.6136 14.9612 31.0385 16.1889 26.7759 17.891C22.5353 19.6144 18.7464 21.7287 15.4027 24.2324C12.0628 26.7369 9.31259 29.5508 7.15846 32.6771C5.89771 34.6294 4.86744 36.6519 4.07054 38.7441C3.1507 40.8336 2.62815 43.0072 2.50609 45.2579L2.32444 45.3958H0.144733C0.144733 44.9594 0.144733 44.5093 0.144733 44.0515C0.144733 43.7744 0.122353 43.5104 0.0743998 43.2574C0.0255743 43.0285 0 42.8107 0 42.6032C0.0255753 38.1465 1.01952 33.9297 2.98068 29.9548C4.96712 25.9779 7.7403 22.3932 11.299 19.2001C14.8578 15.9821 19.0356 13.284 23.8324 11.1001C26.5198 9.79099 29.4377 8.69766 32.5884 7.82562C34.5972 7.27345 36.6215 6.78056 38.6529 6.34418C36.6918 5.6762 34.805 5.28602 32.9886 5.1702C31.1946 5.05715 29.5484 5.25086 28.0474 5.75754C27.2952 6.03191 26.6166 6.37659 26.0121 6.79158C25.2376 7.22726 24.6185 7.72291 24.1585 8.27233L23.8324 8.44467L22.1235 7.37823C22.1496 7.23829 22.2092 7.1011 22.3051 6.96392C22.4048 6.80193 22.5013 6.65371 22.5981 6.51653C22.7169 6.21803 22.9242 5.91885 23.2133 5.61967C23.313 5.48248 23.4211 5.33151 23.5432 5.1702C23.6624 5.03302 23.7583 4.88481 23.8324 4.7235C25.2599 3.16141 26.8831 1.99018 28.6995 1.20638C30.5159 0.403961 32.4771 0 34.5865 0C36.7886 0 39.0787 0.368805 41.4517 1.10435C43.8502 1.83921 46.2965 2.95391 48.7915 4.44845C49.2507 4.7235 49.7108 5.01165 50.1705 5.31015H50.9712C51.4304 5.03302 51.9018 4.74763 52.3875 4.44845C54.8816 2.95391 57.3142 1.83921 59.6901 1.10435C62.0848 0.368805 64.3757 0 66.5554 0C68.7577 0 70.7928 0.414993 72.6572 1.24154C74.5477 2.06808 76.205 3.33375 77.6356 5.03302C77.7802 5.31014 77.9248 5.50385 78.0694 5.61967V5.75754C78.2176 5.91885 78.3506 6.10222 78.4697 6.30903C78.5918 6.51653 78.7255 6.73505 78.8701 6.96392L79.0146 7.1011L79.1592 7.37823Z" fill="#023047"/>
</svg>
