<svg width="100%" height="100%" viewBox="0 0 101 84" fill="none" xmlns="http://www.w3.org/2000/svg">
<path fill-rule="evenodd" clip-rule="evenodd" d="M79.1592 7.37823L77.3094 8.44467C75.8076 6.97426 74.0732 5.9995 72.1122 5.51488C70.1512 5.03302 68.0456 5.022 65.7918 5.48248C65.3064 5.61967 64.8095 5.74651 64.3016 5.85957C63.7937 5.97538 63.2967 6.13669 62.8114 6.34418L62.4852 6.51653C67.6678 7.45612 72.4755 8.94032 76.909 10.9622C81.3389 12.9607 85.2646 15.3976 88.6787 18.2681C92.0929 21.1654 94.8546 24.3944 96.9602 27.9543C98.1721 30.3208 99.1544 32.6881 99.9035 35.0554C100.219 36.2507 100.474 37.4923 100.667 38.7765C100.886 40.0422 100.993 41.3162 100.993 42.6032C101.019 43.0175 100.971 43.5 100.849 44.0515C100.849 44.5093 100.849 44.9594 100.849 45.3958H98.6691C98.2317 41.534 96.9864 37.8935 94.9287 34.468C92.8449 31.0454 90.1065 27.9432 86.7177 25.1617C83.3261 22.4042 79.415 20.0859 74.9815 18.2005C73.6504 17.6731 72.3055 17.1885 70.9519 16.7522C69.5947 16.3158 68.1786 15.9008 66.7 15.5106C64.8095 14.9371 62.8376 14.5007 60.7799 14.2022C62.329 15.9497 63.9383 17.7752 65.6102 19.6819C65.8514 19.9804 66.0584 20.2686 66.2292 20.5436C66.4217 20.8208 66.6404 21.071 66.8816 21.3026C67.367 21.8762 67.7782 22.4635 68.1161 23.0612C70.9744 26.8989 73.4804 30.8379 75.6375 34.883C77.7918 38.9489 79.585 43.0072 81.0127 47.0489C82.4659 51.1175 83.5187 55.0468 84.1747 58.8383C84.8272 62.6298 85.083 66.1786 84.9384 69.4883C84.9384 70.8208 84.8388 72.0837 84.6456 73.2797C84.4269 74.4965 84.1631 75.6574 83.8485 76.7617C83.5332 77.8654 83.1445 78.8753 82.6845 79.7935C82.2246 80.7359 81.6797 81.6438 81.0498 82.5186C80.9052 82.6557 80.7831 82.7826 80.6865 82.8956C80.5898 82.9901 80.5048 83.1031 80.4307 83.2403C80.1415 83.5636 79.9345 83.8166 79.8153 84L77.9248 82.966C79.4746 80.2085 80.3232 76.8182 80.4678 72.7979C80.6385 68.7989 80.167 64.4097 79.0517 59.6297C77.9618 54.8745 76.29 49.9787 74.0398 44.9484C72.6346 42.0055 71.0711 39.0537 69.3505 36.0894C68.5048 34.6645 67.6082 33.2403 66.6629 31.8154C65.7438 30.3912 64.776 28.9987 63.7567 27.6447V27.5069C60.6092 23.3466 57.3883 19.7061 54.0926 16.5798C53.778 16.2806 53.4401 15.9821 53.0768 15.683C52.7135 15.3838 52.3758 15.088 52.0611 14.7889C51.6237 14.3497 51.1043 13.903 50.4966 13.4425C48.9955 14.7758 47.4575 16.2241 45.8852 17.7862C44.2839 19.3724 42.7116 21.0848 41.1625 22.9212C40.8472 23.2204 40.5319 23.5782 40.2174 23.9904C39.9021 24.3806 39.5873 24.7605 39.272 25.1293C38.6419 25.8648 38.0261 26.6562 37.4184 27.5069C33.8823 32.3324 30.8792 37.2848 28.4106 42.3633C25.938 47.4391 24.062 52.4266 22.7797 57.3217C21.471 62.1934 20.7924 66.7412 20.7444 70.9718C20.6965 73.339 20.9005 75.5553 21.3635 77.6234C21.8227 79.5757 22.4388 81.3122 23.2133 82.8281V82.966L21.5082 84C21.3635 83.838 21.2042 83.6657 21.0336 83.483C20.8889 83.2755 20.7328 83.1031 20.5628 82.966L20.4184 82.6557L20.2736 82.5186C18.6723 80.4264 17.549 77.8978 16.8928 74.9356C16.215 71.9707 15.9845 68.6858 16.2034 65.077C16.3967 61.4931 17.0151 57.7016 18.057 53.7026C19.0725 49.7284 20.4777 45.6839 22.2717 41.5691C23.6987 38.4457 25.2599 35.3297 26.9575 32.2276C27.9026 30.62 28.8812 29.0579 29.9007 27.542C30.8909 26.0234 31.9467 24.5316 33.0589 23.0612C34.1488 21.588 35.2642 20.1638 36.4029 18.7851C37.5631 17.4064 38.7271 16.1221 39.891 14.926C39.9614 14.7889 40.0465 14.673 40.143 14.5814C40.2398 14.4655 40.3618 14.3394 40.5063 14.2022C35.6136 14.9612 31.0385 16.1889 26.7759 17.891C22.5353 19.6144 18.7464 21.7287 15.4027 24.2324C12.0628 26.7369 9.31259 29.5508 7.15846 32.6771C5.89771 34.6294 4.86744 36.6519 4.07054 38.7441C3.1507 40.8336 2.62815 43.0072 2.50609 45.2579L2.32444 45.3958H0.144733C0.144733 44.9594 0.144733 44.5093 0.144733 44.0515C0.144733 43.7744 0.122353 43.5104 0.0743998 43.2574C0.0255743 43.0285 0 42.8107 0 42.6032C0.0255753 38.1465 1.01952 33.9297 2.98068 29.9548C4.96712 25.9779 7.7403 22.3932 11.299 19.2001C14.8578 15.9821 19.0356 13.284 23.8324 11.1001C26.5198 9.79099 29.4377 8.69766 32.5884 7.82562C34.5972 7.27345 36.6215 6.78056 38.6529 6.34418C36.6918 5.6762 34.805 5.28602 32.9886 5.1702C31.1946 5.05715 29.5484 5.25086 28.0474 5.75754C27.2952 6.03191 26.6166 6.37659 26.0121 6.79158C25.2376 7.22726 24.6185 7.72291 24.1585 8.27233L23.8324 8.44467L22.1235 7.37823C22.1496 7.23829 22.2092 7.1011 22.3051 6.96392C22.4048 6.80193 22.5013 6.65371 22.5981 6.51653C22.7169 6.21803 22.9242 5.91885 23.2133 5.61967C23.313 5.48248 23.4211 5.33151 23.5432 5.1702C23.6624 5.03302 23.7583 4.88481 23.8324 4.7235C25.2599 3.16141 26.8831 1.99018 28.6995 1.20638C30.5159 0.403961 32.4771 0 34.5865 0C36.7886 0 39.0787 0.368805 41.4517 1.10435C43.8502 1.83921 46.2965 2.95391 48.7915 4.44845C49.2507 4.7235 49.7108 5.01165 50.1705 5.31015H50.9712C51.4304 5.03302 51.9018 4.74763 52.3875 4.44845C54.8816 2.95391 57.3142 1.83921 59.6901 1.10435C62.0848 0.368805 64.3757 0 66.5554 0C68.7577 0 70.7928 0.414993 72.6572 1.24154C74.5477 2.06808 76.205 3.33375 77.6356 5.03302C77.7802 5.31014 77.9248 5.50385 78.0694 5.61967V5.75754C78.2176 5.91885 78.3506 6.10222 78.4697 6.30903C78.5918 6.51653 78.7255 6.73505 78.8701 6.96392L79.0146 7.1011L79.1592 7.37823Z" fill="#023047"/>
</svg>
