<svg width="100%" height="100%" viewBox="0 0 247 247" fill="none" xmlns="http://www.w3.org/2000/svg">
<g filter="url(#filter0_ddd)">
<rect x="16" y="13" width="215" height="215" rx="100" fill="white"/>
</g>
<path d="M189 177C189 182.523 184.523 187 179 187H68C62.4772 187 58 182.523 58 177V85.785C58 81.9861 60.1526 78.5152 63.5558 76.8269L119.221 49.2108C122.028 47.8183 125.325 47.8219 128.129 49.2204L183.464 76.8215C186.856 78.5137 189 81.9789 189 85.7701V177Z" fill="#023047" stroke="#023047" stroke-width="2" stroke-miterlimit="10" stroke-linecap="round" stroke-linejoin="round"/>
<path d="M106.262 119.803C110.742 128.45 117.96 135.508 126.764 139.939L133.609 133.217C134.449 132.392 135.693 132.117 136.782 132.483C140.267 133.614 144.031 134.225 147.889 134.225C149.6 134.225 151 135.6 151 137.281V147.944C151 149.625 149.6 151 147.889 151C118.676 151 95 127.747 95 99.0556C95 97.375 96.4 96 98.1111 96H109C110.711 96 112.111 97.375 112.111 99.0556C112.111 102.875 112.733 106.542 113.884 109.964C114.227 111.033 113.978 112.225 113.107 113.081L106.262 119.803Z" fill="white"/>
<path d="M106.262 119.803C110.742 128.45 117.96 135.508 126.764 139.939L133.609 133.217C134.449 132.392 135.693 132.117 136.782 132.483C140.267 133.614 144.031 134.225 147.889 134.225C149.6 134.225 151 135.6 151 137.281V147.944C151 149.625 149.6 151 147.889 151C118.676 151 95 127.747 95 99.0556C95 97.375 96.4 96 98.1111 96H109C110.711 96 112.111 97.375 112.111 99.0556C112.111 102.875 112.733 106.542 113.884 109.964C114.227 111.033 113.978 112.225 113.107 113.081L106.262 119.803Z" stroke="#023047"/>
<defs>
<filter id="filter0_ddd" x="0" y="0" width="247" height="247" filterUnits="userSpaceOnUse" color-interpolation-filters="sRGB">
<feFlood flood-opacity="0" result="BackgroundImageFix"/>
<feColorMatrix in="SourceAlpha" type="matrix" values="0 0 0 0 0 0 0 0 0 0 0 0 0 0 0 0 0 0 127 0"/>
<feMorphology radius="2" operator="dilate" in="SourceAlpha" result="effect1_dropShadow"/>
<feOffset dy="3"/>
<feGaussianBlur stdDeviation="7"/>
<feColorMatrix type="matrix" values="0 0 0 0 0 0 0 0 0 0 0 0 0 0 0 0 0 0 0.12 0"/>
<feBlend mode="normal" in2="BackgroundImageFix" result="effect1_dropShadow"/>
<feColorMatrix in="SourceAlpha" type="matrix" values="0 0 0 0 0 0 0 0 0 0 0 0 0 0 0 0 0 0 127 0"/>
<feMorphology radius="1" operator="dilate" in="SourceAlpha" result="effect2_dropShadow"/>
<feOffset dy="8"/>
<feGaussianBlur stdDeviation="5"/>
<feColorMatrix type="matrix" values="0 0 0 0 0 0 0 0 0 0 0 0 0 0 0 0 0 0 0.14 0"/>
<feBlend mode="normal" in2="effect1_dropShadow" result="effect2_dropShadow"/>
<feColorMatrix in="SourceAlpha" type="matrix" values="0 0 0 0 0 0 0 0 0 0 0 0 0 0 0 0 0 0 127 0"/>
<feMorphology radius="3" operator="erode" in="SourceAlpha" result="effect3_dropShadow"/>
<feOffset dy="5"/>
<feGaussianBlur stdDeviation="2.5"/>
<feColorMatrix type="matrix" values="0 0 0 0 0 0 0 0 0 0 0 0 0 0 0 0 0 0 0.2 0"/>
<feBlend mode="normal" in2="effect2_dropShadow" result="effect3_dropShadow"/>
<feBlend mode="normal" in="SourceGraphic" in2="effect3_dropShadow" result="shape"/>
</filter>
</defs>
</svg>
