<svg width="100%" height="100%" viewBox="0 0 186 248" fill="none" xmlns="http://www.w3.org/2000/svg">
<path fill-rule="evenodd" clip-rule="evenodd" d="M185.078 91.3987C185.078 91.9761 185.078 92.8467 185.078 93.9974C185.078 94.4454 185.125 94.8667 185.214 95.2681C185.302 95.7107 185.343 96.1534 185.343 96.6014C185.343 99.1801 185.146 101.664 184.745 104.065C184.39 106.513 183.922 108.867 183.343 111.133C181.969 116.024 180.166 120.601 177.942 124.867C174.078 131.752 169.01 137.997 162.745 143.601C156.479 149.153 149.255 153.867 141.078 157.732C132.901 161.643 124.01 164.513 114.411 166.331L115.01 166.664C116.698 167.289 118.411 167.752 120.146 168.065C124.458 168.956 128.411 168.935 132.01 167.997C135.657 167.065 138.854 165.18 141.609 162.331L144.745 164.331C144.433 164.909 144.146 165.487 143.881 166.065C143.657 166.643 143.275 167.221 142.745 167.8C142.745 167.935 142.677 168.112 142.547 168.331C142.458 168.555 142.323 168.752 142.146 168.935C136.677 175.467 129.922 178.711 121.881 178.664C117.833 178.664 113.635 177.956 109.275 176.533C104.881 175.112 100.39 172.956 95.813 170.065C94.9687 169.487 94.125 168.909 93.2754 168.331H91.813C90.9687 168.909 90.125 169.487 89.2754 170.065C84.6567 172.909 80.1661 175.066 75.813 176.533C71.4583 177.956 67.2551 178.664 63.2141 178.664C59.3431 178.664 55.7447 177.935 52.4114 176.467C49.0311 174.956 46.0567 172.643 43.4797 169.533C43.2141 169.221 42.9687 168.935 42.7447 168.664C42.5677 168.357 42.3431 168.065 42.0781 167.8L41.7447 167.2L41.4797 166.935C41.2141 166.487 40.9687 166.065 40.7447 165.664C40.5677 165.221 40.3431 164.779 40.0781 164.331L43.4797 162.331L44.0781 162.935C45.2343 164.221 46.5474 165.289 48.0098 166.133C49.5207 166.976 51.0567 167.623 52.6087 168.065C53.1874 168.2 53.7661 168.289 54.3431 168.331C54.9218 168.419 55.4994 168.533 56.0781 168.664C58.2551 168.935 60.5677 168.867 63.0098 168.467C65.4994 168.065 68.0567 167.357 70.6765 166.331C66.9421 165.533 63.2141 164.601 59.4797 163.533C56.6354 162.643 53.901 161.691 51.2754 160.664C48.6567 159.643 46.0567 158.487 43.4797 157.2C34.7661 153.065 27.1463 147.909 20.6087 141.732C14.125 135.555 9.07806 128.643 5.47966 120.997C1.88073 113.357 0.0567269 105.221 0.00979353 96.6014C-0.0312731 95.7107 0.0567275 95.1334 0.275394 94.8667V94.2681C0.275394 93.2001 0.275394 92.2427 0.275394 91.3987H4.60873C4.83273 95.7521 5.79166 99.9561 7.47966 103.997C8.94206 108.044 10.8327 111.956 13.1463 115.732C17.0994 121.779 22.125 127.221 28.2141 132.065C34.2551 136.909 41.1463 140.997 48.8807 144.331C56.6087 147.623 64.9218 149.997 73.813 151.467C73.6765 151.331 73.5207 151.153 73.3431 150.935C73.1661 150.711 72.9421 150.513 72.6765 150.331C68.4114 145.533 64.3021 140.289 60.3431 134.601C56.3431 128.82 52.6354 122.909 49.2141 116.867C47.6567 113.847 46.1463 110.8 44.6765 107.732C43.2551 104.623 41.901 101.576 40.6087 98.6014C37.3234 90.6014 34.7234 82.7521 32.813 75.0654C30.9421 67.4187 29.813 60.1121 29.4114 53.1334C29.0098 46.1534 29.3901 39.7787 30.5474 33.9974C31.7447 28.2214 33.7661 23.2427 36.6087 19.0654C37.1463 18.7107 37.5207 18.2214 37.7447 17.6014C38.0567 17.3307 38.2754 17.1121 38.4114 16.9347C38.5885 16.7107 38.7447 16.4667 38.8807 16.2001L42.0781 18.2001L42.3431 18.4667C40.6087 21.6227 39.4583 25.0654 38.8807 28.8001C38.4797 30.8001 38.1874 32.9094 38.0098 35.1334C37.8327 37.3574 37.7447 39.6227 37.7447 41.9347C37.7917 50.0241 38.9901 58.8001 41.3431 68.2681C43.7447 77.6907 47.2343 87.3094 51.813 97.1334C56.3431 106.956 61.8541 116.487 68.3431 125.732C69.4994 127.419 70.6567 128.956 71.813 130.331C72.9687 131.976 74.0994 133.487 75.2141 134.867C78.0567 138.331 80.9421 141.601 83.8807 144.664C86.7661 147.732 89.6978 150.487 92.6765 152.935C92.9901 152.487 93.3901 152.044 93.8807 151.601C94.3645 151.2 94.8327 150.779 95.2754 150.331C95.813 149.8 96.3901 149.268 97.0098 148.732C97.5884 148.2 98.2341 147.601 98.9421 146.935C101.969 143.909 104.969 140.664 107.942 137.2C110.922 133.691 113.833 129.867 116.677 125.732C120.411 120.357 123.854 114.82 127.01 109.133C128.567 106.289 130.057 103.487 131.479 100.732C132.854 97.9347 134.125 95.1121 135.275 92.2681C139.499 82.4867 142.635 72.9761 144.677 63.7321C146.723 54.5334 147.589 46.0441 147.275 38.2681C147.01 30.4867 145.499 23.8881 142.745 18.4667L145.881 16.2001C146.146 16.4667 146.365 16.7107 146.547 16.9347C146.723 17.1121 146.881 17.3307 147.01 17.6014C147.547 18.2214 147.922 18.7107 148.146 19.0654V19.3307C149.302 20.9347 150.343 22.6427 151.275 24.4667C152.255 26.3307 153.031 28.3574 153.609 30.5334C154.187 32.6641 154.635 34.9094 154.942 37.2681C155.255 39.6641 155.479 42.0854 155.609 44.5334C155.881 51.0241 155.411 57.9561 154.214 65.3307C152.969 72.7107 151.031 80.3307 148.411 88.2001C145.791 96.0241 142.479 103.867 138.479 111.732C134.521 119.601 129.942 127.221 124.745 134.601C123.813 135.8 123.031 136.847 122.411 137.732C121.567 138.935 120.723 139.997 119.881 140.935C117.031 144.847 114.078 148.357 111.01 151.467C115.01 150.847 118.723 150.085 122.146 149.2C127.609 147.82 132.657 145.997 137.275 143.732C145.547 140.18 152.813 135.752 159.078 130.467C165.343 125.133 170.365 119.153 174.146 112.533C177.969 105.909 180.275 98.8667 181.078 91.3987H185.078Z" fill="white"/>
<path fill-rule="evenodd" clip-rule="evenodd" d="M145.275 15.2681L141.881 17.3308C139.125 14.4868 135.942 12.6015 132.343 11.6641C128.745 10.7321 124.881 10.7108 120.745 11.6015C119.854 11.8668 118.942 12.1121 118.01 12.3308C117.078 12.5548 116.166 12.8668 115.275 13.2681L114.677 13.6015C124.187 15.4188 133.01 18.2895 141.146 22.2001C149.275 26.0655 156.479 30.7788 162.745 36.3308C169.01 41.9348 174.078 48.1801 177.942 55.0655C180.166 59.6428 181.969 64.2215 183.343 68.8001C183.922 71.1121 184.39 73.5135 184.745 75.9975C185.146 78.4455 185.343 80.9095 185.343 83.3988C185.39 84.2001 185.302 85.1335 185.078 86.2001C185.078 87.0855 185.078 87.9561 185.078 88.8001H181.078C180.275 81.3308 177.99 74.2895 174.214 67.6641C170.39 61.0441 165.365 55.0441 159.146 49.6641C152.922 44.3308 145.745 39.8468 137.609 36.2001C135.166 35.1801 132.698 34.2428 130.214 33.3988C127.723 32.5548 125.125 31.7521 122.411 30.9975C118.942 29.8881 115.323 29.0441 111.547 28.4668C114.39 31.8468 117.343 35.3775 120.411 39.0655C120.854 39.6428 121.234 40.2001 121.547 40.7321C121.901 41.2681 122.302 41.7521 122.745 42.2001C123.635 43.3095 124.39 44.4455 125.01 45.6015C130.255 53.0241 134.854 60.6428 138.813 68.4668C142.766 76.3308 146.057 84.1801 148.677 91.9975C151.343 99.8668 153.275 107.467 154.479 114.8C155.677 122.133 156.146 128.997 155.881 135.399C155.881 137.976 155.698 140.419 155.343 142.732C154.942 145.085 154.458 147.331 153.881 149.467C153.302 151.601 152.589 153.555 151.745 155.331C150.901 157.153 149.901 158.909 148.745 160.601C148.479 160.867 148.255 161.112 148.078 161.331C147.901 161.513 147.745 161.732 147.609 161.997C147.078 162.623 146.698 163.112 146.479 163.467L143.01 161.467C145.854 156.133 147.411 149.576 147.677 141.8C147.99 134.065 147.125 125.576 145.078 116.331C143.078 107.133 140.01 97.6641 135.881 87.9348C133.302 82.2428 130.433 76.5335 127.275 70.8001C125.723 68.0441 124.078 65.2895 122.343 62.5335C120.657 59.7788 118.881 57.0855 117.01 54.4668V54.2001C111.234 46.1535 105.323 39.1121 99.2754 33.0655C98.698 32.4868 98.078 31.9095 97.4114 31.3308C96.7447 30.7521 96.125 30.1801 95.5474 29.6015C94.7447 28.7521 93.7916 27.8881 92.6764 26.9975C89.9218 29.5761 87.0994 32.3775 84.214 35.3988C81.2754 38.4668 78.39 41.7788 75.5474 45.3308C74.9687 45.9095 74.39 46.6015 73.813 47.3988C73.2343 48.1535 72.6567 48.8881 72.078 49.6015C70.9218 51.0241 69.7916 52.5548 68.6764 54.2001C62.1874 63.5335 56.6764 73.1121 52.1463 82.9348C47.6087 92.7521 44.166 102.399 41.813 111.867C39.4114 121.289 38.166 130.085 38.078 138.268C37.99 142.847 38.3644 147.133 39.214 151.133C40.0567 154.909 41.1874 158.268 42.6087 161.2V161.467L39.4796 163.467C39.214 163.153 38.9218 162.82 38.6087 162.467C38.3431 162.065 38.0567 161.732 37.7447 161.467L37.4796 160.867L37.214 160.601C34.2754 156.555 32.214 151.664 31.0098 145.935C29.766 140.2 29.3431 133.847 29.7447 126.867C30.0994 119.935 31.2343 112.601 33.1463 104.867C35.0098 97.1801 37.5884 89.3575 40.8807 81.3988C43.4994 75.3575 46.3644 69.3308 49.4796 63.3308C51.214 60.2215 53.0098 57.2001 54.8807 54.2681C56.6978 51.3308 58.6354 48.4455 60.6764 45.6015C62.6764 42.7521 64.7234 39.9975 66.813 37.3308C68.942 34.6641 71.078 32.1801 73.214 29.8668C73.3431 29.6015 73.4994 29.3775 73.6764 29.2001C73.854 28.9761 74.078 28.7321 74.3431 28.4668C65.3644 29.9348 56.9687 32.3095 49.1463 35.6015C41.3644 38.9348 34.4114 43.0241 28.2754 47.8668C22.1463 52.7108 17.0994 58.1535 13.1463 64.2001C10.8327 67.9761 8.94203 71.8881 7.47963 75.9348C5.79163 79.9761 4.8327 84.1801 4.6087 88.5335L4.27537 88.8001H0.275366C0.275366 87.9561 0.275366 87.0855 0.275366 86.2001C0.275366 85.6641 0.234297 85.1535 0.146297 84.6641C0.0566972 84.2215 0.00976562 83.8001 0.00976562 83.3988C0.056699 74.7788 1.8807 66.6228 5.47963 58.9348C9.12496 51.2428 14.214 44.3095 20.7447 38.1335C27.2754 31.9095 34.942 26.6908 43.7447 22.4668C48.6764 19.9348 54.0311 17.8201 59.813 16.1335C63.4994 15.0655 67.214 14.1121 70.942 13.2681C67.3431 11.9761 63.8807 11.2215 60.5474 10.9975C57.2551 10.7788 54.2343 11.1535 51.4796 12.1335C50.0994 12.6641 48.854 13.3308 47.7447 14.1335C46.3234 14.9761 45.1874 15.9348 44.3431 16.9975L43.7447 17.3308L40.6087 15.2681C40.6567 14.9975 40.766 14.7321 40.942 14.4668C41.125 14.1535 41.302 13.8668 41.4796 13.6015C41.6978 13.0241 42.078 12.4455 42.6087 11.8668C42.7916 11.6015 42.99 11.3095 43.214 10.9975C43.4327 10.7321 43.6087 10.4455 43.7447 10.1335C46.3644 7.11214 49.3431 4.8468 52.6764 3.33081C56.0098 1.77881 59.6087 0.997467 63.4796 0.997467C67.5207 0.997467 71.7234 1.7108 76.078 3.13347C80.4796 4.55481 84.9687 6.7108 89.5474 9.60147C90.39 10.1335 91.2343 10.6908 92.078 11.2681H93.5474C94.39 10.7321 95.2551 10.1801 96.1463 9.60147C100.723 6.7108 105.187 4.55481 109.547 3.13347C113.942 1.7108 118.146 0.997467 122.146 0.997467C126.187 0.997467 129.922 1.80014 133.343 3.3988C136.813 4.99747 139.854 7.44547 142.479 10.7321C142.745 11.2681 143.01 11.6428 143.275 11.8668V12.1335C143.547 12.4455 143.791 12.8001 144.01 13.2001C144.234 13.6015 144.479 14.0241 144.745 14.4668L145.01 14.7321L145.275 15.2681Z" fill="#023047"/>
<path d="M59.9607 212.773L58.8785 217.516H46.6405C46.5103 214.327 46.5103 211.097 46.5103 207.445H53.8687L54.4424 210.901H56.1649V202.568H54.4424L53.8162 206.128H46.5103C46.5103 202.764 46.5103 199.544 46.6405 196.448H58.0436L59.1649 201.19H61.2132L60.9134 194.997H38.5781V196.149L42.9222 196.509C43.0527 199.678 43.0527 202.897 43.0527 206.097V207.907C43.0527 211.127 43.0527 214.327 42.9222 217.454L38.5781 217.814V218.997H61.7484L62.0481 212.773H59.9607ZM73.9565 217.649C73.826 214.389 73.826 211.066 73.826 207.341V206.159C73.826 202.805 73.826 199.513 73.9565 196.345H78.2095C85.4764 196.345 89.5726 200.069 89.5726 207.012C89.5726 213.668 85.4764 217.649 77.753 217.649H73.9565ZM65.8938 194.997V196.149L70.2383 196.509C70.3684 199.678 70.3684 202.897 70.3684 206.159V207.341C70.3684 211.066 70.3684 214.327 70.2383 217.454L65.8938 217.814V218.997H78.1313C87.1854 218.997 93.5781 214.614 93.5781 207.012C93.5781 199.246 87.7334 194.997 78.8876 194.997H65.8938Z" fill="#023047"/>
<path d="M119.444 212.773L118.336 217.516H105.823C105.689 214.327 105.689 211.097 105.689 207.445H113.213L113.801 210.901H115.561V202.568H113.801L113.16 206.128H105.689C105.689 202.764 105.689 199.544 105.823 196.448H117.482L118.63 201.19H120.724L120.418 194.997H97.5781V196.149L102.021 196.509C102.154 199.678 102.154 202.897 102.154 206.097V207.907C102.154 211.127 102.154 214.327 102.021 217.454L97.5781 217.814V218.997H121.272L121.578 212.773H119.444Z" fill="#023047"/>
<path d="M145.325 212.444L143.972 217.516H132.771C132.638 214.389 132.638 211.23 132.638 208.566V206.262C132.638 202.897 132.638 199.678 132.771 196.509L137.185 196.149V194.997H124.578V196.149L128.992 196.509C129.125 199.636 129.125 202.836 129.125 206.097V207.939C129.125 211.097 129.125 214.285 128.992 217.454L124.578 217.814V218.997H147.194L147.578 212.444H145.325Z" fill="#023047"/>
<path d="M14.7371 237.951C14.7371 234.98 14.7371 232.496 14.8336 230.044H18.1726C22.0325 230.044 23.7844 231.426 23.7844 233.857C23.7844 236.211 21.7451 237.951 17.9406 237.951H14.7371ZM26.3029 246.484L24.565 241.958C23.7441 239.938 22.6761 238.999 20.6641 238.631C24.565 238.07 26.604 236.125 26.604 233.878C26.604 230.757 23.5251 228.996 18.2411 228.996H8.57812V229.893L11.9452 230.173C12.0547 232.625 12.0547 235.131 12.0547 237.616V239.02C12.0547 241.526 12.0547 244.011 11.9452 246.441L8.57812 246.721V247.64H18.2V246.721L14.8336 246.441C14.7371 244.032 14.7371 241.601 14.7371 238.966H16.9141C19.8976 238.966 21.0196 239.452 21.7731 241.678L23.3875 246.279C23.7844 247.435 24.6201 247.899 26.7275 247.899C27.7955 247.899 28.6435 247.77 29.232 247.64V246.721L26.3029 246.484ZM33.8074 239.938C34.1903 236.687 36.5588 235.153 38.9267 235.153C41.4172 235.153 43.1421 236.773 43.1421 238.556C43.1421 239.376 42.8136 239.938 41.3901 239.938H33.8074ZM45.3461 240.943C45.5097 240.554 45.5781 240.014 45.5781 239.355C45.5781 236.157 42.8547 234.137 39.0906 234.137C34.8069 234.137 31.1523 236.87 31.1523 241.148C31.1523 245.512 34.4233 247.996 38.9538 247.996C41.9787 247.996 44.2097 246.819 45.5377 244.983L44.8527 244.572C43.5941 245.771 42.0742 246.571 39.7747 246.571C36.3398 246.571 33.8074 244.702 33.7803 240.91L45.3461 240.943Z" fill="#7C7C7C"/>
<path d="M58.651 244.69C56.5649 246.01 55.6116 246.469 54.2437 246.469C52.4751 246.469 51.231 245.781 51.231 244.221C51.231 243.195 51.8251 242.104 54.9892 241.154C55.8734 240.871 57.3111 240.5 58.651 240.216V244.69ZM64.0254 246.109C63.5287 246.523 63.1412 246.731 62.547 246.731C61.6627 246.731 61.1384 246.261 61.1384 244.766V238.645C61.1384 235.284 59.383 233.996 55.7495 233.996C52.2814 233.996 49.7249 235.262 49.0344 237.379C49.1032 238.001 49.6559 238.361 50.4714 238.361C51.3281 238.361 51.8251 237.968 52.0877 237.226L52.8068 235.306C53.6493 235.076 54.4089 235.022 55.0863 235.022C57.5729 235.022 58.651 235.72 58.651 238.568V239.398C57.1591 239.649 55.5833 240.009 54.3125 240.325C49.8496 241.591 48.5781 242.857 48.5781 244.592C48.5781 246.807 50.679 247.996 53.2904 247.996C55.4179 247.996 56.7301 247.243 58.7198 245.65C59.024 247.069 60.0603 247.942 61.7325 247.942C62.8786 247.942 63.7912 247.581 64.5781 246.654L64.0254 246.109Z" fill="#7C7C7C"/>
<path d="M70.8425 246.82C70.8039 245.293 70.7783 243.601 70.7783 242.062V231.237L70.8687 227.227L70.4193 226.996L65.7062 228.084V228.897L68.4675 229.106V242.062C68.4675 243.601 68.4419 245.293 68.4034 246.82L65.5781 247.161V247.996H73.5781V247.161L70.8425 246.82Z" fill="#7C7C7C"/>
<path d="M102.805 243.065L101.873 246.818H91.4444C91.3395 244.297 91.3395 241.744 91.3395 238.848H97.6059L98.1012 241.578H99.5591V234.984H98.1012L97.5607 237.802H91.3395C91.3395 235.149 91.3395 232.595 91.4444 230.141H101.167L102.129 233.895H103.871L103.616 228.996H84.5781V229.91L88.2746 230.196C88.3948 232.695 88.3948 235.249 88.3948 237.781V239.211C88.3948 241.765 88.3948 244.297 88.2746 246.774L84.5781 247.06V247.996H104.322L104.578 243.065H102.805Z" fill="#7C7C7C"/>
<path d="M113.564 239.758C111.148 239.026 110.242 238.492 110.242 237.171C110.242 235.906 111.45 235.022 113.825 235.022C114.759 235.022 115.679 235.208 116.544 235.6L117.134 237.892H118.562L118.699 235.109C117.134 234.378 115.706 233.996 113.825 233.996C109.981 233.996 107.866 235.753 107.866 237.761C107.866 239.681 109.555 240.762 112.164 241.515L113.784 242.006C116.16 242.704 117.162 243.348 117.162 244.613C117.162 246.01 115.802 246.96 112.905 246.96C111.711 246.96 110.736 246.785 109.858 246.469L109.143 243.97H107.578L107.702 246.993C109.431 247.637 110.956 247.996 112.905 247.996C117.327 247.996 119.578 246.141 119.578 244.101C119.578 242.366 118.274 241.122 114.828 240.118L113.564 239.758Z" fill="#7C7C7C"/>
<path d="M130.926 246.015C130.01 246.541 129.29 246.776 128.429 246.776C127.083 246.776 126.293 246.115 126.293 244.549V235.224H131.259V234.004H126.321L126.529 229.996H124.711L123.935 233.926L120.578 234.239V235.224H123.796V242.354C123.796 243.385 123.769 244 123.769 244.661C123.769 246.911 125.142 247.996 127.638 247.996C129.317 247.996 130.663 247.526 131.578 246.675L130.926 246.015Z" fill="#7C7C7C"/>
<path d="M143.651 244.69C141.564 246.01 140.611 246.469 139.243 246.469C137.474 246.469 136.231 245.781 136.231 244.221C136.231 243.195 136.825 242.104 139.989 241.154C140.873 240.871 142.31 240.5 143.651 240.216V244.69ZM149.025 246.109C148.528 246.523 148.141 246.731 147.547 246.731C146.663 246.731 146.137 246.261 146.137 244.766V238.645C146.137 235.284 144.383 233.996 140.749 233.996C137.281 233.996 134.725 235.262 134.034 237.379C134.103 238.001 134.656 238.361 135.471 238.361C136.327 238.361 136.825 237.968 137.088 237.226L137.806 235.306C138.649 235.076 139.409 235.022 140.085 235.022C142.573 235.022 143.651 235.72 143.651 238.568V239.398C142.158 239.649 140.583 240.009 139.312 240.325C134.849 241.591 133.578 242.857 133.578 244.592C133.578 246.807 135.678 247.996 138.29 247.996C140.417 247.996 141.73 247.243 143.72 245.65C144.023 247.069 145.06 247.942 146.732 247.942C147.879 247.942 148.79 247.581 149.578 246.654L149.025 246.109Z" fill="#7C7C7C"/>
<path d="M159.986 246.015C159.153 246.541 158.498 246.776 157.716 246.776C156.493 246.776 155.774 246.115 155.774 244.549V235.224H160.288V234.004H155.799L155.989 229.996H154.336L153.63 233.926L150.578 234.239V235.224H153.504V242.354C153.504 243.385 153.479 244 153.479 244.661C153.479 246.911 154.727 247.996 156.997 247.996C158.523 247.996 159.746 247.526 160.578 246.675L159.986 246.015Z" fill="#7C7C7C"/>
<path d="M165.339 239.856C165.738 236.572 168.2 235.022 170.661 235.022C173.252 235.022 175.044 236.659 175.044 238.459C175.044 239.288 174.703 239.856 173.223 239.856H165.339ZM177.336 240.871C177.507 240.478 177.578 239.932 177.578 239.267C177.578 236.037 174.746 233.996 170.832 233.996C166.378 233.996 162.578 236.757 162.578 241.078C162.578 245.486 165.979 247.996 170.69 247.996C173.835 247.996 176.155 246.807 177.535 244.952L176.824 244.537C175.514 245.748 173.935 246.556 171.544 246.556C167.972 246.556 165.339 244.669 165.311 240.838L177.336 240.871Z" fill="#7C7C7C"/>
</svg>
