<svg viewBox="0 0 186 248" fill="none" xmlns="http://www.w3.org/2000/svg"><path fill-rule="evenodd" clip-rule="evenodd" d="M185.078 91.399v2.598c0 .448.047.87.136 1.271.088.443.129.885.129 1.333 0 2.58-.197 5.063-.598 7.464a67.872 67.872 0 0 1-1.402 7.068c-1.374 4.891-3.177 9.468-5.401 13.734-3.864 6.885-8.932 13.13-15.197 18.734-6.266 5.552-13.49 10.266-21.667 14.131-8.177 3.911-17.068 6.781-26.667 8.599l.599.333a30.205 30.205 0 0 0 5.136 1.401c4.312.891 8.265.87 11.864-.068 3.647-.932 6.844-2.817 9.599-5.666l3.136 2a29.746 29.746 0 0 0-.864 1.734c-.224.578-.606 1.156-1.136 1.735 0 .135-.068.312-.198.531a1.843 1.843 0 0 1-.401.604c-5.469 6.532-12.224 9.776-20.265 9.729-4.048 0-8.246-.708-12.606-2.131-4.394-1.421-8.885-3.577-13.462-6.468-.844-.578-1.688-1.156-2.538-1.734h-1.462c-.844.578-1.688 1.156-2.538 1.734-4.618 2.844-9.109 5.001-13.462 6.468-4.355 1.423-8.558 2.131-12.599 2.131-3.87 0-7.47-.729-10.803-2.197-3.38-1.511-6.354-3.824-8.931-6.934-.266-.312-.511-.598-.735-.869a4.181 4.181 0 0 0-.667-.864l-.333-.6-.265-.265c-.266-.448-.511-.87-.735-1.271a9.692 9.692 0 0 0-.667-1.333l3.402-2 .598.604a16.07 16.07 0 0 0 3.932 3.198c1.51.843 3.047 1.49 4.599 1.932.578.135 1.157.224 1.734.266.579.088 1.156.202 1.735.333 2.177.271 4.49.203 6.932-.197 2.49-.402 5.047-1.11 7.667-2.136a169.544 169.544 0 0 1-11.197-2.798 124.972 124.972 0 0 1-8.205-2.869 93.337 93.337 0 0 1-7.795-3.464c-8.714-4.135-16.334-9.291-22.871-15.468-6.484-6.177-11.53-13.089-15.13-20.735-3.598-7.64-5.422-15.776-5.47-24.396-.04-.89.048-1.468.266-1.734v-.599-2.87H4.61a37.461 37.461 0 0 0 2.87 12.599 64.172 64.172 0 0 0 5.667 11.735c3.953 6.047 8.979 11.489 15.068 16.333 6.041 4.844 12.932 8.932 20.667 12.266 7.728 3.292 16.04 5.666 24.932 7.136a7.094 7.094 0 0 1-.47-.532 2.99 2.99 0 0 0-.666-.604c-4.266-4.798-8.375-10.042-12.334-15.73-4-5.781-7.708-11.692-11.129-17.734a347.48 347.48 0 0 1-4.538-9.135 526.633 526.633 0 0 1-4.067-9.13c-3.286-8-5.886-15.85-7.796-23.537-1.87-7.646-3-14.953-3.402-21.932-.401-6.98-.02-13.354 1.136-19.136 1.198-5.776 3.22-10.754 6.062-14.932a2.866 2.866 0 0 0 1.136-1.464c.312-.27.53-.489.666-.666a4.41 4.41 0 0 0 .47-.735l3.197 2 .265.267c-1.734 3.156-2.885 6.598-3.462 10.333-.401 2-.694 4.11-.871 6.333a85.633 85.633 0 0 0-.265 6.802c.047 8.09 1.245 16.865 3.598 26.333 2.402 9.423 5.891 19.041 10.47 28.865 4.53 9.823 10.041 19.354 16.53 28.599a58.85 58.85 0 0 0 3.47 4.599 84.86 84.86 0 0 0 3.401 4.536 168.963 168.963 0 0 0 8.667 9.797c2.885 3.068 5.817 5.823 8.796 8.271a7.997 7.997 0 0 1 1.204-1.334c.484-.401.952-.822 1.394-1.27a35.686 35.686 0 0 1 1.735-1.599c.578-.532 1.224-1.131 1.932-1.797a173.92 173.92 0 0 0 9-9.735c2.98-3.509 5.891-7.333 8.735-11.468a194.505 194.505 0 0 0 10.333-16.599 389.99 389.99 0 0 0 4.469-8.401 127.853 127.853 0 0 0 3.796-8.464c4.224-9.781 7.36-19.292 9.402-28.536 2.046-9.199 2.912-17.688 2.598-25.464-.265-7.781-1.776-14.38-4.53-19.801l3.136-2.267c.265.267.484.51.666.735.176.177.334.396.463.666.537.62.912 1.11 1.136 1.464v.266a39.486 39.486 0 0 1 3.129 5.136c.98 1.864 1.756 3.89 2.334 6.066a50.703 50.703 0 0 1 1.333 6.735c.313 2.396.537 4.817.667 7.265.272 6.491-.198 13.423-1.395 20.798-1.245 7.38-3.183 15-5.803 22.87-2.62 7.823-5.932 15.666-9.932 23.531-3.958 7.869-8.537 15.489-13.734 22.869a80.8 80.8 0 0 0-2.334 3.131 34.115 34.115 0 0 1-2.53 3.203c-2.85 3.912-5.803 7.422-8.871 10.532 4-.62 7.713-1.382 11.136-2.267 5.463-1.38 10.511-3.203 15.129-5.468 8.272-3.552 15.538-7.98 21.803-13.265 6.265-5.334 11.287-11.314 15.068-17.934 3.823-6.624 6.129-13.666 6.932-21.134h4z" fill="#fff"/><path fill-rule="evenodd" clip-rule="evenodd" d="M145.275 15.268l-3.394 2.063c-2.756-2.844-5.939-4.73-9.538-5.667-3.598-.932-7.462-.953-11.598-.063a48.05 48.05 0 0 1-2.735.73c-.932.224-1.844.536-2.735.937l-.598.333c9.51 1.818 18.333 4.688 26.469 8.6 8.129 3.864 15.333 8.578 21.599 14.13 6.265 5.604 11.333 11.85 15.197 18.734 2.224 4.578 4.027 9.157 5.401 13.735a70.945 70.945 0 0 1 1.402 7.198c.401 2.447.598 4.911.598 7.4.047.802-.041 1.736-.265 2.802v2.6h-4c-.803-7.47-3.088-14.51-6.864-21.136-3.824-6.62-8.849-12.62-15.068-18-6.224-5.333-13.401-9.817-21.537-13.464a116.41 116.41 0 0 0-7.395-2.801 147.087 147.087 0 0 0-7.803-2.402 70.654 70.654 0 0 0-10.864-2.53c2.843 3.38 5.796 6.91 8.864 10.599.443.577.823 1.134 1.136 1.666.354.536.755 1.02 1.198 1.468a22.254 22.254 0 0 1 2.265 3.401c5.245 7.423 9.844 15.042 13.803 22.866 3.953 7.864 7.244 15.713 9.864 23.53 2.666 7.87 4.598 15.47 5.802 22.803 1.198 7.333 1.667 14.197 1.402 20.599 0 2.577-.183 5.02-.538 7.333a72.632 72.632 0 0 1-1.462 6.735c-.579 2.134-1.292 4.088-2.136 5.864a36.602 36.602 0 0 1-3 5.27c-.266.266-.49.511-.667.73a2.73 2.73 0 0 0-.469.666c-.531.626-.911 1.115-1.13 1.47l-3.469-2c2.844-5.334 4.401-11.891 4.667-19.667.313-7.735-.552-16.224-2.599-25.469-2-9.198-5.068-18.667-9.197-28.396a245.746 245.746 0 0 0-8.606-17.135 196.558 196.558 0 0 0-4.932-8.267 135.967 135.967 0 0 0-5.333-8.066V54.2c-5.776-8.047-11.687-15.088-17.735-21.135a35.563 35.563 0 0 0-1.864-1.734 35.603 35.603 0 0 1-1.864-1.73c-.802-.849-1.755-1.713-2.87-2.604a213.394 213.394 0 0 0-8.463 8.402 148.328 148.328 0 0 0-8.667 9.932 17.118 17.118 0 0 0-1.734 2.068c-.579.755-1.156 1.49-1.735 2.203a65.941 65.941 0 0 0-3.402 4.598c-6.489 9.333-12 18.912-16.53 28.735-4.537 9.817-7.98 19.464-10.333 28.932-2.402 9.422-3.647 18.218-3.735 26.401-.088 4.579.286 8.865 1.136 12.865.843 3.776 1.973 7.135 3.395 10.067v.267l-3.13 2a57.363 57.363 0 0 0-.87-1 4.685 4.685 0 0 0-.864-1l-.265-.6-.266-.266c-2.939-4.046-5-8.937-6.204-14.666-1.244-5.735-1.667-12.088-1.265-19.068.354-6.932 1.49-14.266 3.401-22 1.864-7.687 4.442-15.51 7.735-23.468A286.44 286.44 0 0 1 49.48 63.33c1.734-3.11 3.53-6.13 5.4-9.063a152.295 152.295 0 0 1 5.796-8.666c2-2.85 4.047-5.604 6.137-8.271a136.913 136.913 0 0 1 6.401-7.464c.13-.265.285-.49.462-.667.178-.224.402-.468.667-.733-8.979 1.468-17.374 3.843-25.197 7.135-7.782 3.333-14.735 7.422-20.87 12.265-6.13 4.844-11.177 10.287-15.13 16.333A64.179 64.179 0 0 0 7.48 75.935a37.465 37.465 0 0 0-2.871 12.599l-.334.266h-4v-2.6a8.66 8.66 0 0 0-.129-1.536A6.388 6.388 0 0 1 .01 83.4c.047-8.62 1.87-16.776 5.47-24.464 3.645-7.692 8.734-14.626 15.265-20.802 6.53-6.224 14.197-11.442 23-15.666 4.931-2.532 10.286-4.647 16.068-6.333a193.717 193.717 0 0 1 11.129-2.866c-3.599-1.292-7.061-2.046-10.395-2.27-3.292-.22-6.313.155-9.067 1.136a16.332 16.332 0 0 0-3.735 2c-1.422.842-2.558 1.8-3.402 2.863l-.598.334-3.136-2.063c.048-.27.157-.536.333-.801.183-.314.36-.6.538-.866.218-.577.598-1.156 1.129-1.734.183-.266.381-.558.605-.87a3.63 3.63 0 0 0 .53-.864c2.62-3.02 5.6-5.286 8.932-6.802C56.01 1.779 59.61.997 63.48.997c4.04 0 8.243.714 12.598 2.136 4.402 1.422 8.89 3.578 13.47 6.468.842.532 1.686 1.09 2.53 1.667h1.47c.842-.536 1.707-1.088 2.598-1.667 4.577-2.89 9.041-5.046 13.401-6.468 4.395-1.422 8.599-2.136 12.599-2.136 4.041 0 7.776.803 11.197 2.402 3.47 1.598 6.511 4.046 9.136 7.333.266.536.531.91.796 1.135v.266c.272.313.516.667.735 1.067.224.402.469.824.735 1.267l.265.265.265.536z" fill="#023047"/><path d="M59.96 212.773l-1.081 4.743H46.64c-.13-3.189-.13-6.419-.13-10.071h7.358l.573 3.456h1.723v-8.333h-1.723l-.626 3.56H46.51c0-3.364 0-6.584.13-9.68h11.404l1.12 4.742h2.05l-.3-6.193H38.577v1.152l4.344.36c.13 3.169.13 6.388.13 9.588v1.81c0 3.22 0 6.42-.13 9.547l-4.344.36v1.183h23.17l.3-6.224h-2.087zm13.997 4.876c-.131-3.26-.131-6.583-.131-10.308v-1.182c0-3.354 0-6.646.13-9.814h4.254c7.266 0 11.363 3.724 11.363 10.667 0 6.656-4.097 10.637-11.82 10.637h-3.796zm-8.063-22.652v1.152l4.344.36c.13 3.169.13 6.388.13 9.65v1.182c0 3.725 0 6.986-.13 10.113l-4.344.36v1.183H78.13c9.054 0 15.447-4.383 15.447-11.985 0-7.766-5.845-12.015-14.69-12.015H65.894zm53.55 17.776l-1.108 4.743h-12.513c-.134-3.189-.134-6.419-.134-10.071h7.524l.588 3.456h1.76v-8.333h-1.76l-.641 3.56h-7.471c0-3.364 0-6.584.134-9.68h11.659l1.148 4.742h2.094l-.306-6.193h-22.84v1.152l4.443.36c.133 3.169.133 6.388.133 9.588v1.81c0 3.22 0 6.42-.133 9.547l-4.443.36v1.183h23.694l.306-6.224h-2.134zm25.881-.329l-1.353 5.072h-11.201c-.133-3.127-.133-6.286-.133-8.95v-2.304c0-3.365 0-6.584.133-9.753l4.414-.36v-1.152h-12.607v1.152l4.414.36c.133 3.127.133 6.327.133 9.588v1.842c0 3.158 0 6.346-.133 9.515l-4.414.36v1.183h22.616l.384-6.553h-2.253z" fill="#023047"/><path d="M14.737 237.951c0-2.971 0-5.455.097-7.907h3.339c3.86 0 5.611 1.382 5.611 3.813 0 2.354-2.039 4.094-5.843 4.094h-3.204zm11.566 8.533l-1.738-4.526c-.82-2.02-1.889-2.959-3.9-3.327 3.9-.561 5.939-2.506 5.939-4.753 0-3.121-3.079-4.882-8.363-4.882H8.578v.897l3.367.28c.11 2.452.11 4.958.11 7.443v1.404c0 2.506 0 4.991-.11 7.421l-3.367.28v.919H18.2v-.919l-3.366-.28c-.097-2.409-.097-4.84-.097-7.475h2.177c2.984 0 4.106.486 4.86 2.712l1.613 4.601c.397 1.156 1.233 1.62 3.34 1.62 1.069 0 1.916-.129 2.505-.259v-.919l-2.93-.237zm7.504-6.546c.383-3.251 2.752-4.785 5.12-4.785 2.49 0 4.215 1.62 4.215 3.403 0 .82-.328 1.382-1.752 1.382h-7.583zm11.54 1.005c.163-.389.231-.929.231-1.588 0-3.198-2.723-5.218-6.487-5.218-4.284 0-7.939 2.733-7.939 7.011 0 4.364 3.271 6.848 7.802 6.848 3.025 0 5.256-1.177 6.584-3.013l-.685-.411c-1.259 1.199-2.779 1.999-5.078 1.999-3.435 0-5.968-1.869-5.995-5.661l11.566.033zm13.304 3.747c-2.086 1.32-3.04 1.779-4.407 1.779-1.769 0-3.013-.688-3.013-2.248 0-1.026.594-2.117 3.758-3.067.884-.283 2.322-.654 3.662-.938v4.474zm5.374 1.419c-.496.414-.884.622-1.478.622-.884 0-1.409-.47-1.409-1.965v-6.121c0-3.361-1.755-4.649-5.389-4.649-3.468 0-6.024 1.266-6.715 3.383.07.622.622.982 1.437.982.857 0 1.354-.393 1.617-1.135l.719-1.92a8.47 8.47 0 0 1 2.28-.284c2.486 0 3.564.698 3.564 3.546v.83a59.72 59.72 0 0 0-4.339.927c-4.462 1.266-5.734 2.532-5.734 4.267 0 2.215 2.101 3.404 4.712 3.404 2.128 0 3.44-.753 5.43-2.346.304 1.419 1.34 2.292 3.013 2.292 1.146 0 2.058-.361 2.845-1.288l-.553-.545zm6.817.711a194.74 194.74 0 0 1-.064-4.758v-10.825l.09-4.01-.449-.231-4.713 1.088v.813l2.761.209v12.956c0 1.539-.025 3.231-.064 4.758l-2.825.341v.835h8v-.835l-2.736-.341zm31.963-3.755l-.932 3.753H91.444c-.105-2.521-.105-5.074-.105-7.97h6.267l.495 2.73h1.458v-6.594h-1.458l-.54 2.818h-6.222c0-2.653 0-5.207.105-7.661h9.723l.962 3.754h1.742l-.255-4.899H84.578v.914l3.697.286c.12 2.499.12 5.053.12 7.585v1.43c0 2.554 0 5.086-.12 7.563l-3.697.286v.936h19.744l.256-4.931h-1.773zm10.759-3.307c-2.416-.732-3.322-1.266-3.322-2.587 0-1.265 1.208-2.149 3.583-2.149a6.55 6.55 0 0 1 2.719.578l.59 2.292h1.428l.137-2.783c-1.565-.731-2.993-1.113-4.874-1.113-3.844 0-5.959 1.757-5.959 3.765 0 1.92 1.689 3.001 4.298 3.754l1.62.491c2.376.698 3.378 1.342 3.378 2.607 0 1.397-1.36 2.347-4.257 2.347-1.194 0-2.169-.175-3.047-.491l-.715-2.499h-1.565l.124 3.023c1.729.644 3.254 1.003 5.203 1.003 4.422 0 6.673-1.855 6.673-3.895 0-1.735-1.304-2.979-4.75-3.983l-1.264-.36zm17.362 6.257c-.916.526-1.636.761-2.497.761-1.346 0-2.136-.661-2.136-2.227v-9.325h4.966v-1.22h-4.938l.208-4.008h-1.818l-.776 3.93-3.357.313v.985h3.218v7.13c0 1.031-.027 1.646-.027 2.307 0 2.25 1.373 3.335 3.869 3.335 1.679 0 3.025-.47 3.94-1.321l-.652-.66zm12.725-1.325c-2.087 1.32-3.04 1.779-4.408 1.779-1.769 0-3.012-.688-3.012-2.248 0-1.026.594-2.117 3.758-3.067.884-.283 2.321-.654 3.662-.938v4.474zm5.374 1.419c-.497.414-.884.622-1.478.622-.884 0-1.41-.47-1.41-1.965v-6.121c0-3.361-1.754-4.649-5.388-4.649-3.468 0-6.024 1.266-6.715 3.383.069.622.622.982 1.437.982.856 0 1.354-.393 1.617-1.135l.718-1.92a8.475 8.475 0 0 1 2.279-.284c2.488 0 3.566.698 3.566 3.546v.83a59.634 59.634 0 0 0-4.339.927c-4.463 1.266-5.734 2.532-5.734 4.267 0 2.215 2.1 3.404 4.712 3.404 2.127 0 3.44-.753 5.43-2.346.303 1.419 1.34 2.292 3.012 2.292 1.147 0 2.058-.361 2.846-1.288l-.553-.545zm10.961-.094c-.833.526-1.488.761-2.27.761-1.223 0-1.942-.661-1.942-2.227v-9.325h4.514v-1.22h-4.489l.19-4.008h-1.653l-.706 3.93-3.052.313v.985h2.926v7.13c0 1.031-.025 1.646-.025 2.307 0 2.25 1.248 3.335 3.518 3.335 1.526 0 2.749-.47 3.581-1.321l-.592-.66zm5.353-6.159c.399-3.284 2.861-4.834 5.322-4.834 2.591 0 4.383 1.637 4.383 3.437 0 .829-.341 1.397-1.821 1.397h-7.884zm11.997 1.015c.171-.393.242-.939.242-1.604 0-3.23-2.832-5.271-6.746-5.271-4.454 0-8.254 2.761-8.254 7.082 0 4.408 3.401 6.918 8.112 6.918 3.145 0 5.465-1.189 6.845-3.044l-.711-.415c-1.31 1.211-2.889 2.019-5.28 2.019-3.572 0-6.205-1.887-6.233-5.718l12.025.033z" fill="#7C7C7C"/></svg>