<svg width="100%" height="100%" viewBox="0 0 247 247" fill="none" xmlns="http://www.w3.org/2000/svg">
<g filter="url(#filter0_ddd)">
<rect x="16" y="13" width="215" height="215" rx="100" fill="white"/>
</g>
<path d="M197.153 99.4357C197.153 109.515 188.557 117.768 177.848 117.768C167.139 117.768 158.542 109.515 158.542 99.4357C158.542 89.3567 167.139 81.1033 177.848 81.1033C188.557 81.1033 197.153 89.3567 197.153 99.4357Z" fill="#023047" stroke="#023047" stroke-width="2"/>
<path d="M131.862 91.0439H131.405L131.106 91.3897C128.31 94.6222 123.452 100.156 117.675 103.281C117.37 103.423 116.932 103.553 116.534 103.553C115.879 103.553 115.376 103.397 115.033 103.071L114.962 103.003L114.88 102.951C114.142 102.483 113.849 101.519 114.26 100.604L114.27 100.583L114.279 100.56C115.525 97.397 115.941 94.2382 115.941 92.0439V91.0439H114.941H110.76C104.497 91.0439 99.418 86.139 99.418 80.2928V64.7511C99.418 58.9049 104.497 54 110.76 54H138.232C144.495 54 149.575 58.9049 149.575 64.7511V80.2928C149.575 86.139 144.495 91.0439 138.232 91.0439H131.862ZM136.242 62.8034H112.95C111.051 62.8034 109.362 64.3426 109.362 66.2673C109.362 68.1921 111.051 69.7313 112.95 69.7313H136.242C138.141 69.7313 139.83 68.1921 139.83 66.2673C139.83 64.3426 138.141 62.8034 136.242 62.8034ZM109.362 78.2079C109.362 80.1327 111.051 81.6719 112.95 81.6719H136.242C138.141 81.6719 139.83 80.1327 139.83 78.2079C139.83 76.2832 138.141 74.744 136.242 74.744H112.95C111.051 74.744 109.362 76.2832 109.362 78.2079Z" fill="#023047" stroke="#023047" stroke-width="2"/>
<path d="M90.4504 99.4357C90.4504 109.515 81.8539 117.768 71.145 117.768C60.4361 117.768 51.8396 109.515 51.8396 99.4357C51.8396 89.3567 60.4361 81.1033 71.145 81.1033C81.8539 81.1033 90.4504 89.3567 90.4504 99.4357Z" fill="#023047" stroke="#023047" stroke-width="2"/>
<path d="M115.504 161.895C110.539 161.729 105.224 160.934 101.002 159.167C96.1329 157.025 92.8861 152.713 90.5355 148.423L88.659 148.934L89.6539 182.086C89.6461 184.186 87.9022 186 85.6771 186H56.8116C54.5867 186 52.8428 184.186 52.8348 182.087L53.8297 149.882L51.9448 149.387L51.9379 149.4C51.2461 150.717 50.54 152.062 49.9574 153.316C49.383 154.552 48.8989 155.762 48.6728 156.818C48.0663 159.038 47.0207 163.639 46.1301 167.69C45.6817 169.73 45.2706 171.639 44.9714 173.052C44.8219 173.758 44.7 174.34 44.6154 174.754C44.5732 174.96 44.5397 175.126 44.5166 175.246C44.5051 175.305 44.4954 175.356 44.4883 175.397C44.4866 175.406 44.4849 175.416 44.4832 175.426C44.4813 175.438 44.4794 175.45 44.4776 175.461C44.4765 175.469 44.475 175.479 44.4735 175.491C43.9556 178.526 41.059 180.693 37.8997 180.693C37.3109 180.693 37.0478 180.689 36.6096 180.55L36.5486 180.531L36.4856 180.52C32.8375 179.858 30.4558 176.409 31.1083 173.023C31.1586 172.844 31.2274 172.535 31.3009 172.199C31.3998 171.747 31.5311 171.13 31.6866 170.395C31.7749 169.977 31.8712 169.52 31.974 169.032C32.2336 167.799 32.535 166.369 32.8557 164.868C33.7537 160.664 34.7917 155.961 35.4777 153.535L35.4816 153.521L35.4851 153.508C36.5777 149.173 39.7674 143.464 43.0062 137.667C43.1877 137.343 43.3693 137.017 43.5507 136.692L43.5569 136.681L43.5628 136.67L44.3505 135.17C47.7781 129.197 52.6407 126.212 58.8023 126.212H84.6817C92.6057 126.212 96.4857 130.304 98.3388 133.656L98.3782 133.728L98.4285 133.791C98.6509 134.074 98.86 134.459 99.1007 134.986C99.2193 135.246 99.339 135.525 99.4705 135.832L99.4781 135.85C99.6061 136.148 99.744 136.47 99.8947 136.805C99.9614 136.953 100.033 137.113 100.109 137.284C100.705 138.616 101.58 140.574 102.598 142.381C103.172 143.402 103.807 144.403 104.481 145.234C105.142 146.048 105.911 146.786 106.775 147.166L106.78 147.168C108.758 148.024 111.694 148.566 114.852 148.721C114.22 149.886 113.84 151.175 113.565 152.484C112.836 155.786 113.638 159.045 115.504 161.895Z" fill="#023047" stroke="#023047" stroke-width="2"/>
<path d="M213.507 153.318L213.511 153.332L213.515 153.346C214.201 155.772 215.239 160.475 216.137 164.678C216.457 166.18 216.759 167.61 217.018 168.843C217.121 169.331 217.217 169.787 217.306 170.205C217.461 170.941 217.593 171.558 217.691 172.009C217.765 172.345 217.834 172.655 217.884 172.833C218.541 176.231 216.34 179.481 212.706 180.141L212.643 180.152L212.582 180.171C212.144 180.31 211.88 180.314 211.292 180.314C208.181 180.314 205.42 178.185 204.712 175.074C204.709 175.054 204.706 175.034 204.703 175.016C204.696 174.976 204.686 174.925 204.674 174.866C204.651 174.748 204.618 174.584 204.575 174.38C204.491 173.972 204.369 173.396 204.22 172.697C203.92 171.3 203.509 169.408 203.061 167.381C202.168 163.341 201.121 158.735 200.517 156.434C200.08 154.577 198.619 151.621 197.247 149.007L195.362 149.503L196.357 181.708C196.348 183.807 194.605 185.621 192.38 185.621H163.514C161.289 185.621 159.545 183.807 159.538 181.707L160.532 148.555L158.656 148.044C156.304 152.336 153.055 156.65 148.182 158.792L148.176 158.794C138.711 163.024 127.227 161.371 126.046 161.184L126.035 161.182L126.024 161.18C122.37 160.683 119.825 157.209 120.5 153.838C121.191 150.382 124.666 147.902 128.299 148.561L128.345 148.569L128.391 148.573C129.492 148.669 131.784 148.863 134.388 148.766C136.971 148.669 139.959 148.284 142.423 147.163C143.285 146.782 144.051 146.046 144.71 145.234C145.385 144.403 146.02 143.402 146.594 142.381C147.611 140.574 148.486 138.616 149.082 137.284C149.158 137.113 149.23 136.953 149.297 136.805C149.878 135.514 150.46 134.405 150.858 133.647C152.713 130.297 156.593 126.212 164.51 126.212H190.19C196.352 126.212 201.214 129.197 204.642 135.17L205.43 136.67L205.439 136.687L205.448 136.704C208.861 142.63 212.355 148.746 213.507 153.318Z" fill="#023047" stroke="#023047" stroke-width="2"/>
<defs>
<filter id="filter0_ddd" x="0" y="0" width="247" height="247" filterUnits="userSpaceOnUse" color-interpolation-filters="sRGB">
<feFlood flood-opacity="0" result="BackgroundImageFix"/>
<feColorMatrix in="SourceAlpha" type="matrix" values="0 0 0 0 0 0 0 0 0 0 0 0 0 0 0 0 0 0 127 0"/>
<feMorphology radius="2" operator="dilate" in="SourceAlpha" result="effect1_dropShadow"/>
<feOffset dy="3"/>
<feGaussianBlur stdDeviation="7"/>
<feColorMatrix type="matrix" values="0 0 0 0 0 0 0 0 0 0 0 0 0 0 0 0 0 0 0.12 0"/>
<feBlend mode="normal" in2="BackgroundImageFix" result="effect1_dropShadow"/>
<feColorMatrix in="SourceAlpha" type="matrix" values="0 0 0 0 0 0 0 0 0 0 0 0 0 0 0 0 0 0 127 0"/>
<feMorphology radius="1" operator="dilate" in="SourceAlpha" result="effect2_dropShadow"/>
<feOffset dy="8"/>
<feGaussianBlur stdDeviation="5"/>
<feColorMatrix type="matrix" values="0 0 0 0 0 0 0 0 0 0 0 0 0 0 0 0 0 0 0.14 0"/>
<feBlend mode="normal" in2="effect1_dropShadow" result="effect2_dropShadow"/>
<feColorMatrix in="SourceAlpha" type="matrix" values="0 0 0 0 0 0 0 0 0 0 0 0 0 0 0 0 0 0 127 0"/>
<feMorphology radius="3" operator="erode" in="SourceAlpha" result="effect3_dropShadow"/>
<feOffset dy="5"/>
<feGaussianBlur stdDeviation="2.5"/>
<feColorMatrix type="matrix" values="0 0 0 0 0 0 0 0 0 0 0 0 0 0 0 0 0 0 0.2 0"/>
<feBlend mode="normal" in2="effect2_dropShadow" result="effect3_dropShadow"/>
<feBlend mode="normal" in="SourceGraphic" in2="effect3_dropShadow" result="shape"/>
</filter>
</defs>
</svg>
