<svg width="100%" height="100%" viewBox="0 0 247 247" fill="none" xmlns="http://www.w3.org/2000/svg">
<g filter="url(#filter0_ddd)">
<rect x="16" y="13" width="215" height="215" rx="100" fill="white"/>
</g>
<path d="M157.088 160.534C161.731 160.534 165.494 156.771 165.494 152.128C165.494 147.485 161.731 143.721 157.088 143.721H92.4406C87.7976 143.721 84.0337 147.485 84.0337 152.128C84.0337 156.771 87.7976 160.534 92.4406 160.534H157.088ZM157.088 130.907C161.731 130.907 165.494 127.143 165.494 122.5C165.494 117.857 161.731 114.093 157.088 114.093H92.4406C87.7976 114.093 84.0337 117.857 84.0337 122.5C84.0337 127.143 87.7976 130.907 92.4406 130.907H157.088ZM157.088 101.279C161.731 101.279 165.494 97.5154 165.494 92.8724C165.494 88.2294 161.731 84.4655 157.088 84.4655H92.4406C87.7976 84.4655 84.0337 88.2294 84.0337 92.8724C84.0337 97.5154 87.7976 101.279 92.4406 101.279H157.088ZM71.383 188.117C69.555 190.162 66.1686 188.869 66.1686 186.126V58.8738C66.1686 56.1311 69.555 54.838 71.383 56.8828C73.3657 59.1005 76.8366 59.1005 78.8193 56.8828L80.813 54.6527C83.0637 52.1351 87.0038 52.1351 89.2545 54.6527C92.3003 58.0597 97.6323 58.0597 100.678 54.6527C102.929 52.1351 106.869 52.1351 109.12 54.6527C112.166 58.0597 117.498 58.0597 120.543 54.6527C122.794 52.1351 126.734 52.1351 128.985 54.6527C132.031 58.0597 137.363 58.0597 140.408 54.6527C142.659 52.1351 146.599 52.1351 148.85 54.6527C151.896 58.0597 157.228 58.0597 160.274 54.6527C162.524 52.1351 166.464 52.1351 168.715 54.6527L170.709 56.8828C172.692 59.1005 176.162 59.1005 178.145 56.8828C179.973 54.838 183.36 56.131 183.36 58.8738V186.126C183.36 188.869 179.973 190.162 178.145 188.117C176.162 185.899 172.692 185.899 170.709 188.117L168.715 190.347C166.464 192.865 162.524 192.865 160.274 190.347C157.228 186.94 151.896 186.94 148.85 190.347C146.599 192.865 142.659 192.865 140.408 190.347C137.363 186.94 132.031 186.94 128.985 190.347C126.734 192.865 122.794 192.865 120.543 190.347C117.498 186.94 112.166 186.94 109.12 190.347C106.869 192.865 102.929 192.865 100.678 190.347C97.6323 186.94 92.3003 186.94 89.2545 190.347C87.0038 192.865 83.0637 192.865 80.813 190.347L78.8193 188.117C76.8366 185.899 73.3657 185.899 71.383 188.117Z" fill="#023047" stroke="#023047" stroke-width="2"/>
<path d="M161.535 150.75H148V134.303L191.24 82.955L204.933 99.215L161.535 150.75ZM217.075 79.3867C218.322 80.8669 218.322 83.3156 217.075 84.7959L210.52 92.5801L196.827 76.32L203.605 68.2717C204.208 67.555 204.955 67.2382 205.66 67.2382C206.365 67.2382 207.112 67.555 207.715 68.2717L217.075 79.3867Z" fill="#023047" stroke="white" stroke-width="2"/>
<defs>
<filter id="filter0_ddd" x="0" y="0" width="247" height="247" filterUnits="userSpaceOnUse" color-interpolation-filters="sRGB">
<feFlood flood-opacity="0" result="BackgroundImageFix"/>
<feColorMatrix in="SourceAlpha" type="matrix" values="0 0 0 0 0 0 0 0 0 0 0 0 0 0 0 0 0 0 127 0"/>
<feMorphology radius="2" operator="dilate" in="SourceAlpha" result="effect1_dropShadow"/>
<feOffset dy="3"/>
<feGaussianBlur stdDeviation="7"/>
<feColorMatrix type="matrix" values="0 0 0 0 0 0 0 0 0 0 0 0 0 0 0 0 0 0 0.12 0"/>
<feBlend mode="normal" in2="BackgroundImageFix" result="effect1_dropShadow"/>
<feColorMatrix in="SourceAlpha" type="matrix" values="0 0 0 0 0 0 0 0 0 0 0 0 0 0 0 0 0 0 127 0"/>
<feMorphology radius="1" operator="dilate" in="SourceAlpha" result="effect2_dropShadow"/>
<feOffset dy="8"/>
<feGaussianBlur stdDeviation="5"/>
<feColorMatrix type="matrix" values="0 0 0 0 0 0 0 0 0 0 0 0 0 0 0 0 0 0 0.14 0"/>
<feBlend mode="normal" in2="effect1_dropShadow" result="effect2_dropShadow"/>
<feColorMatrix in="SourceAlpha" type="matrix" values="0 0 0 0 0 0 0 0 0 0 0 0 0 0 0 0 0 0 127 0"/>
<feMorphology radius="3" operator="erode" in="SourceAlpha" result="effect3_dropShadow"/>
<feOffset dy="5"/>
<feGaussianBlur stdDeviation="2.5"/>
<feColorMatrix type="matrix" values="0 0 0 0 0 0 0 0 0 0 0 0 0 0 0 0 0 0 0.2 0"/>
<feBlend mode="normal" in2="effect2_dropShadow" result="effect3_dropShadow"/>
<feBlend mode="normal" in="SourceGraphic" in2="effect3_dropShadow" result="shape"/>
</filter>
</defs>
</svg>
